{
  "accessors": [
    {
      "bufferView": 2,
      "componentType": 5126,
      "count": 20232,
      "max": [
        10.600241661071777,
        12.225515365600586,
        14.179498672485352
      ],
      "min": [
        -19.001371383666992,
        -9.5367431640625e-07,
        -12.179498672485352
      ],
      "type": "VEC3"
    },
    {
      "bufferView": 2,
      "byteOffset": 242784,
      "componentType": 5126,
      "count": 20232,
      "max": [
        1.0,
        1.0,
        1.0
      ],
      "min": [
        -1.0,
        -1.0,
        -1.0
      ],
      "type": "VEC3"
    },
    {
      "bufferView": 3,
      "componentType": 5126,
      "count": 20232,
      "max": [
        1.0,
        1.0,
        1.0,
        1.0
      ],
      "min": [
        -1.0,
        -1.0,
        -1.0,
        -1.0
      ],
      "type": "VEC4"
    },
    {
      "bufferView": 1,
      "componentType": 5126,
      "count": 20232,
      "max": [
        0.9987481832504272,
        0.998779296875
      ],
      "min": [
        0.001220703125,
        0.001220703125
      ],
      "type": "VEC2"
    },
    {
      "bufferView": 0,
      "componentType": 5125,
      "count": 41544,
      "type": "SCALAR"
    }
  ],
  "asset": {
    "extras": {
      "author": "JanaB (https://sketchfab.com/spaamscheissxd)",
      "license": "CC-BY-4.0 (http://creativecommons.org/licenses/by/4.0/)",
      "source": "https://sketchfab.com/3d-models/simple-japanese-house-3-fe62a1ffda454e1488f81fc3e1a3c313",
      "title": "Simple Japanese House 3"
    },
    "generator": "Sketchfab-14.10.0",
    "version": "2.0"
  },
  "bufferViews": [
    {
      "buffer": 0,
      "byteLength": 166176,
      "name": "floatBufferViews",
      "target": 34963
    },
    {
      "buffer": 0,
      "byteLength": 161856,
      "byteOffset": 166176,
      "byteStride": 8,
      "name": "floatBufferViews",
      "target": 34962
    },
    {
      "buffer": 0,
      "byteLength": 485568,
      "byteOffset": 328032,
      "byteStride": 12,
      "name": "floatBufferViews",
      "target": 34962
    },
    {
      "buffer": 0,
      "byteLength": 323712,
      "byteOffset": 813600,
      "byteStride": 16,
      "name": "floatBufferViews",
      "target": 34962
    }
  ],
  "buffers": [
    {
      "byteLength": 1137312,
      "uri": "scene.bin"
    }
  ],
  "images": [
    {
      "uri": "textures/MAT_JPHouse_baseColor.png"
    },
    {
      "uri": "textures/MAT_JPHouse_metallicRoughness.png"
    },
    {
      "uri": "textures/MAT_JPHouse_emissive.png"
    },
    {
      "uri": "textures/MAT_JPHouse_normal.png"
    }
  ],
  "materials": [
    {
      "doubleSided": true,
      "emissiveFactor": [
        1.0,
        1.0,
        1.0
      ],
      "emissiveTexture": {
        "index": 2
      },
      "name": "MAT_JPHouse",
      "normalTexture": {
        "index": 3
      },
      "pbrMetallicRoughness": {
        "baseColorTexture": {
          "index": 0
        },
        "metallicRoughnessTexture": {
          "index": 1
        }
      }
    }
  ],
  "meshes": [
    {
      "name": "JPHouse3_low_MAT_JPHouse_0",
      "primitives": [
        {
          "attributes": {
            "NORMAL": 1,
            "POSITION": 0,
            "TANGENT": 2,
            "TEXCOORD_0": 3
          },
          "indices": 4,
          "material": 0,
          "mode": 4
        }
      ]
    }
  ],
  "nodes": [
    {
      "children": [
        1
      ],
      "matrix": [
        1.0,
        0.0,
        0.0,
        0.0,
        0.0,
        2.220446049250313e-16,
        -1.0,
        0.0,
        0.0,
        1.0,
        2.220446049250313e-16,
        0.0,
        0.0,
        0.0,
        0.0,
        1.0
      ],
      "name": "Sketchfab_model"
    },
    {
      "children": [
        2
      ],
      "matrix": [
        0.009999999776482582,
        0.0,
        0.0,
        0.0,
        0.0,
        0.0,
        0.009999999776482582,
        0.0,
        0.0,
        -0.009999999776482582,
        0.0,
        0.0,
        0.0,
        0.0,
        0.0,
        1.0
      ],
      "name": "3e7c6b76da0f4a309420f3e0f3ca7abc.fbx"
    },
    {
      "children": [
        3
      ],
      "name": "RootNode"
    },
    {
      "children": [
        4
      ],
      "matrix": [
        31.213916778564453,
        0.0,
        0.0,
        0.0,
        0.0,
        31.213916778564453,
        0.0,
        0.0,
        0.0,
        0.0,
        31.213916778564453,
        0.0,
        239.4308624267578,
        0.0,
        -31.213916778564453,
        1.0
      ],
      "name": "JPHouse3_low"
    },
    {
      "mesh": 0,
      "name": "JPHouse3_low_MAT_JPHouse_0"
    }
  ],
  "samplers": [
    {
      "magFilter": 9729,
      "minFilter": 9987,
      "wrapS": 10497,
      "wrapT": 10497
    }
  ],
  "scene": 0,
  "scenes": [
    {
      "name": "Sketchfab_Scene",
      "nodes": [
        0
      ]
    }
  ],
  "textures": [
    {
      "sampler": 0,
      "source": 0
    },
    {
      "sampler": 0,
      "source": 1
    },
    {
      "sampler": 0,
      "source": 2
    },
    {
      "sampler": 0,
      "source": 3
    }
  ]
}
